<svg width="16" height="20" viewBox="0 0 16 20" fill="none" xmlns="http://www.w3.org/2000/svg">
<path d="M15.8872 12.86C15.8872 14.1267 15.3405 15.14 14.2472 15.9C13.1539 16.6467 11.6272 17.1 9.66719 17.26V19.2H6.14719V17.22C4.29385 16.9933 2.84052 16.46 1.78719 15.62C0.733854 14.7667 0.213854 13.72 0.227188 12.48H3.38719C3.37385 13.1733 3.76719 13.7333 4.56719 14.16C5.38052 14.5733 6.50052 14.78 7.92719 14.78C11.2205 14.78 12.8672 14.18 12.8672 12.98C12.8672 12.4867 12.6405 12.1133 12.1872 11.86C11.7339 11.6067 11.1472 11.4467 10.4272 11.38C9.70719 11.3 8.91385 11.2467 8.04719 11.22C7.18052 11.1933 6.30719 11.1333 5.42719 11.04C4.56052 10.9333 3.76719 10.7667 3.04719 10.54C2.32719 10.3 1.74052 9.89333 1.28719 9.32C0.833854 8.74667 0.607188 8.01333 0.607188 7.12C0.607188 5.93333 1.10052 4.96667 2.08719 4.22C3.08719 3.46 4.44052 2.98 6.14719 2.78V0.299999H9.66719V2.78C11.4805 2.98 12.9139 3.50667 13.9672 4.36C15.0339 5.2 15.5739 6.25333 15.5872 7.52H12.5072C12.5205 6.81333 12.1272 6.25333 11.3272 5.84C10.5405 5.42667 9.46052 5.22 8.08719 5.22C5.12719 5.22 3.64719 5.78 3.64719 6.9C3.64719 7.35333 3.87385 7.70667 4.32719 7.96C4.78052 8.2 5.36052 8.36 6.06719 8.44C6.78719 8.50667 7.58052 8.56 8.44719 8.6C9.32719 8.62667 10.2005 8.7 11.0672 8.82C11.9472 8.94 12.7405 9.12667 13.4472 9.38C14.1672 9.63333 14.7539 10.0533 15.2072 10.64C15.6605 11.2267 15.8872 11.9667 15.8872 12.86Z" fill="url(#paint0_linear_7915_10496)"/>
<defs>
<linearGradient id="paint0_linear_7915_10496" x1="-4.41809" y1="12.4239" x2="20.5005" y2="12.429" gradientUnits="userSpaceOnUse">
<stop stop-color="#A1E342"/>
<stop offset="1" stop-color="#1FEDF6"/>
</linearGradient>
</defs>
</svg>
