<svg width="16" height="21" viewBox="0 0 16 21" fill="none" xmlns="http://www.w3.org/2000/svg">
<path d="M12.4539 9.62386C13.5808 9.06144 14.298 8.06152 14.1315 6.39922C13.9138 4.12448 11.9996 3.36207 9.46395 3.14964V0H7.49175V3.06214C6.97948 3.06214 6.4544 3.07463 5.92937 3.08713V0H3.95716V3.14964C3.23206 3.17101 2.38755 3.16058 0 3.14964V5.19936C1.5571 5.17247 2.3741 5.07482 2.56129 6.04923V14.6732C2.44241 15.4463 1.80846 15.335 0.396976 15.3107L4.06472e-05 17.5979C3.59595 17.5979 3.95721 17.6104 3.95721 17.6104V20.3077H5.92941V17.6479C6.46724 17.6604 6.99232 17.6604 7.49179 17.6604V20.3077H9.46399V17.6104C12.768 17.4354 14.9768 16.623 15.2713 13.5858C15.5018 11.1487 14.3236 10.0613 12.4539 9.62386V9.62386ZM5.96781 5.33684C7.08197 5.33684 10.5653 4.99942 10.5653 7.26163C10.5653 9.42388 7.08201 9.17388 5.96781 9.17388V5.33684V5.33684ZM5.96781 15.3231V11.0987C7.29968 11.0987 11.3782 10.7362 11.3782 13.2109C11.3781 15.5981 7.29968 15.3231 5.96781 15.3231Z" fill="url(#paint0_linear_7915_10500)"/>
<defs>
<linearGradient id="paint0_linear_7915_10500" x1="0.050131" y1="12.3913" x2="15.3003" y2="12.3934" gradientUnits="userSpaceOnUse">
<stop stop-color="#A1E342"/>
<stop offset="1" stop-color="#1FEDF6"/>
</linearGradient>
</defs>
</svg>
