<svg width="32" height="27" viewBox="0 0 32 27" fill="none" xmlns="http://www.w3.org/2000/svg">
<path fill-rule="evenodd" clip-rule="evenodd" d="M18.833 22.36C17.2576 23.315 15.4092 23.8648 13.4324 23.8648C7.67075 23.8648 3 19.1941 3 13.4324C3 7.67075 7.67075 3 13.4324 3C18.7445 3 23.1292 6.97021 23.7812 12.1052C20.373 10.744 17.0264 11.0902 15.5947 13.199C13.9496 15.6224 15.4009 19.5371 18.833 22.36ZM21.56 24.1278C19.3034 25.8453 16.487 26.8648 13.4324 26.8648C6.0139 26.8648 0 20.8509 0 13.4324C0 6.0139 6.0139 0 13.4324 0C20.8509 0 26.8648 6.0139 26.8648 13.4324C26.8648 13.5628 26.863 13.6927 26.8593 13.8221C30.7409 16.6656 32.4735 20.907 30.7306 23.4744C29.1612 25.7862 25.2904 25.9798 21.56 24.1278ZM26.3062 17.2782C27.1435 18.1045 27.7338 18.9712 28.0717 19.7536C28.6075 20.9944 28.3754 21.6025 28.2485 21.7894C28.1216 21.9763 27.6421 22.4164 26.2912 22.3763C25.5845 22.3553 24.7599 22.1944 23.8846 21.87C24.9692 20.5283 25.8006 18.9734 26.3062 17.2782ZM23.6865 15.3635C23.3282 17.2779 22.447 19.0082 21.1968 20.4003C19.7189 19.3076 18.7327 18.029 18.2536 16.9198C17.7178 15.6791 17.9499 15.071 18.0768 14.8841C18.2037 14.6971 18.6832 14.257 20.0341 14.2971C21.069 14.3279 22.3569 14.6588 23.6865 15.3635Z" fill="url(#paint0_linear_7910_10511)"/>
<defs>
<linearGradient id="paint0_linear_7910_10511" x1="0.102912" y1="16.3924" x2="31.4094" y2="16.3989" gradientUnits="userSpaceOnUse">
<stop stop-color="#A1E342"/>
<stop offset="1" stop-color="#1FEDF6"/>
</linearGradient>
</defs>
</svg>
